<svg width="20" height="19" viewBox="0 0 20 19" fill="none" xmlns="http://www.w3.org/2000/svg">
<path d="M13.6292 12.891L14.0852 12.438L13.0262 11.374L12.5722 11.827L13.6292 12.891ZM15.6142 12.248L17.5252 13.287L18.2402 11.969L16.3302 10.931L15.6142 12.248ZM17.8922 15.351L16.4722 16.764L17.5292 17.827L18.9492 16.415L17.8922 15.351ZM15.6062 17.218C14.1562 17.354 10.4062 17.233 6.3442 13.195L5.2862 14.258C9.7182 18.665 13.9372 18.881 15.7462 18.712L15.6062 17.218ZM6.3442 13.195C2.4732 9.345 1.8312 6.108 1.7512 4.703L0.253197 4.788C0.353197 6.556 1.1482 10.144 5.2862 14.258L6.3442 13.195ZM7.7192 7.015L8.0062 6.729L6.9502 5.666L6.6632 5.951L7.7192 7.015ZM8.2342 3.094L6.9742 1.41L5.7732 2.31L7.0332 3.993L8.2342 3.094ZM2.7332 1.043L1.1632 2.603L2.2212 3.667L3.7902 2.107L2.7332 1.043ZM7.1912 6.483C6.6612 5.951 6.6612 5.951 6.6612 5.953H6.6592L6.6562 5.957C6.60898 6.00519 6.56646 6.05776 6.5292 6.114C6.4752 6.194 6.4162 6.299 6.3662 6.432C6.24443 6.77531 6.2141 7.14441 6.2782 7.503C6.4122 8.368 7.0082 9.511 8.5342 11.029L9.5922 9.965C8.1632 8.545 7.8232 7.681 7.7602 7.273C7.7302 7.079 7.7612 6.983 7.7702 6.961C7.7752 6.947 7.7772 6.946 7.7702 6.955C7.76138 6.96887 7.75134 6.98192 7.7402 6.994L7.7302 7.004C7.72696 7.00711 7.72363 7.01011 7.7202 7.013L7.1912 6.483ZM8.5342 11.029C10.0612 12.547 11.2102 13.139 12.0762 13.271C12.5192 13.339 12.8762 13.285 13.1472 13.184C13.2987 13.1279 13.4405 13.0483 13.5672 12.948C13.5844 12.9336 13.6011 12.9186 13.6172 12.903L13.6242 12.897L13.6272 12.894L13.6282 12.892C13.6282 12.892 13.6292 12.891 13.1002 12.359C12.5702 11.827 12.5732 11.826 12.5732 11.826L12.5752 11.824L12.5772 11.822L12.5832 11.817L12.5932 11.807C12.6052 11.7962 12.6179 11.7862 12.6312 11.777C12.6412 11.77 12.6382 11.773 12.6242 11.779C12.5992 11.788 12.5012 11.819 12.3042 11.789C11.8902 11.725 11.0202 11.385 9.5922 9.965L8.5342 11.029ZM6.9742 1.409C5.9542 0.0489982 3.9502 -0.167002 2.7332 1.043L3.7902 2.107C4.3222 1.578 5.2662 1.633 5.7732 2.31L6.9742 1.409ZM1.7522 4.704C1.7322 4.358 1.8912 3.996 2.2212 3.668L1.1622 2.604C0.625197 3.138 0.202197 3.894 0.253197 4.788L1.7522 4.704ZM16.4722 16.764C16.1982 17.038 15.9022 17.192 15.6072 17.219L15.7462 18.712C16.4812 18.643 17.0822 18.273 17.5302 17.828L16.4722 16.764ZM8.0062 6.729C8.9912 5.75 9.0642 4.203 8.2352 3.095L7.0342 3.994C7.4372 4.533 7.3772 5.24 6.9492 5.667L8.0062 6.729ZM17.5262 13.288C18.3432 13.732 18.4702 14.778 17.8932 15.352L18.9512 16.415C20.2912 15.082 19.8782 12.859 18.2412 11.97L17.5262 13.288ZM14.0852 12.439C14.4692 12.057 15.0872 11.963 15.6152 12.249L16.3312 10.932C15.2472 10.342 13.9032 10.505 13.0272 11.375L14.0852 12.439Z" fill="#084E06"/>
</svg>
