<svg width="228" height="54" viewBox="0 0 228 54" fill="none" xmlns="http://www.w3.org/2000/svg">
<path d="M56.24 29H55.68V22.476H56.24C56.24 24.2307 56.8653 25.724 58.116 26.956C59.3853 28.188 60.9253 28.804 62.736 28.804C63.4827 28.804 64.08 28.5893 64.528 28.16C64.9947 27.712 65.228 27.124 65.228 26.396C65.228 25.5747 64.696 24.8747 63.632 24.296C63.0533 23.9973 62.0547 23.5307 60.636 22.896C59.2173 22.2427 58.2187 21.692 57.64 21.244C56.4827 20.348 55.9693 19.1627 56.1 17.688C56.2493 16.2133 56.8093 15.0747 57.78 14.272C58.7507 13.4507 59.8427 13.04 61.056 13.04C62.288 13.04 63.3893 13.208 64.36 13.544C65.3493 13.8613 65.9093 14.02 66.04 14.02C66.4133 14.02 66.6 13.6933 66.6 13.04H67.16V18.164H66.6C66.6 16.82 66.1053 15.728 65.116 14.888C64.1267 14.0293 62.8573 13.6 61.308 13.6C60.6173 13.6 60.076 13.8053 59.684 14.216C59.292 14.608 59.096 15.0467 59.096 15.532C59.096 16.0173 59.1613 16.3907 59.292 16.652C59.4227 16.9133 59.6467 17.156 59.964 17.38C60.3 17.5853 60.5893 17.7533 60.832 17.884C61.0747 18.0147 61.4573 18.192 61.98 18.416C62.5213 18.64 62.8947 18.7987 63.1 18.892C64.1267 19.3587 64.7333 19.6387 64.92 19.732C65.1067 19.8067 65.3773 19.9373 65.732 20.124C66.0867 20.3107 66.348 20.4787 66.516 20.628C66.7027 20.7773 66.936 20.964 67.216 21.188C67.496 21.412 67.7013 21.6453 67.832 21.888C67.9627 22.112 68.0933 22.3733 68.224 22.672C68.4853 23.2693 68.5787 23.9693 68.504 24.772C68.3547 26.284 67.7853 27.4413 66.796 28.244C65.8253 29.028 64.5093 29.42 62.848 29.42C61.3547 29.42 59.8707 29.0373 58.396 28.272C57.892 28.0107 57.5187 27.88 57.276 27.88C56.5853 27.88 56.24 28.2533 56.24 29ZM75.6053 16.68V23.512C75.6053 25.1173 75.6706 26.0973 75.8013 26.452C75.9319 26.788 76.0719 27.0773 76.2213 27.32C76.5013 27.8053 76.9866 28.048 77.6773 28.048C78.3866 28.048 78.8813 27.9547 79.1613 27.768V28.328C78.2653 28.9627 77.2853 29.28 76.2213 29.28C74.6533 29.28 73.4586 28.9067 72.6373 28.16C71.8159 27.4133 71.4053 26.0787 71.4053 24.156V16.68H69.3333V16.12H71.4053C72.3013 15.9707 73.0946 15.5413 73.7853 14.832C74.4759 14.104 74.9519 13.1053 75.2133 11.836H75.6053V16.12H78.8533V16.68H75.6053ZM89.9505 29V27.516C89.5958 28.02 89.0358 28.4493 88.2705 28.804C87.5238 29.14 86.7118 29.308 85.8345 29.308C82.5118 29.308 80.8505 27.5067 80.8505 23.904V16.68H79.4505V16.12H85.0505V24.52C85.0505 25.8453 85.2465 26.788 85.6385 27.348C86.0305 27.908 86.6185 28.188 87.4025 28.188C88.4478 28.188 89.2971 27.628 89.9505 26.508V16.68H88.5505V16.12H94.1505V28.44H95.5505V29H89.9505ZM104.237 29H97.237V28.44H98.637V16.68H97.237V16.12H102.837V19.452C103.005 18.5373 103.304 17.7907 103.733 17.212C104.181 16.6333 104.666 16.2507 105.189 16.064C105.73 15.8773 106.244 15.784 106.729 15.784C107.233 15.784 107.709 15.8773 108.157 16.064C108.624 16.232 108.969 16.5867 109.193 17.128C109.417 17.6507 109.426 18.1827 109.221 18.724C109.016 19.2467 108.652 19.62 108.129 19.844C107.625 20.068 107.158 20.096 106.729 19.928C106.3 19.76 105.992 19.536 105.805 19.256C105.618 18.9573 105.488 18.6773 105.413 18.416C105.226 17.7253 104.974 17.38 104.657 17.38C104.302 17.38 103.91 17.996 103.481 19.228C103.052 20.4413 102.837 21.7293 102.837 23.092V28.44H104.237V29ZM115.784 29.336C114.272 29.336 112.966 28.7387 111.864 27.544C110.763 26.3493 110.212 24.66 110.212 22.476C110.212 20.292 110.754 18.584 111.836 17.352C112.919 16.12 114.235 15.504 115.784 15.504C116.55 15.504 117.268 15.6627 117.94 15.98C118.612 16.2973 119.098 16.7733 119.396 17.408V10.8H117.996V10.24H123.596V28.44H124.996V29H119.396V27.712C118.892 28.7947 117.688 29.336 115.784 29.336ZM119.396 22.868V18.248C118.892 17.24 118.23 16.736 117.408 16.736C116.606 16.736 115.915 17.2027 115.336 18.136C114.758 19.0693 114.468 20.5533 114.468 22.588C114.468 24.604 114.767 26.0787 115.364 27.012C115.962 27.9453 116.68 28.3467 117.52 28.216C117.987 28.1413 118.342 27.992 118.584 27.768C119.126 27.2453 119.396 25.612 119.396 22.868ZM132.609 32.108C132.105 33.1907 131.573 33.9653 131.013 34.432C130.453 34.9173 129.706 35.16 128.773 35.16C127.84 35.16 127.112 34.9547 126.589 34.544C126.066 34.152 125.805 33.62 125.805 32.948C125.805 32.2947 125.992 31.772 126.365 31.38C126.757 30.988 127.224 30.792 127.765 30.792C128.306 30.792 128.764 30.8947 129.137 31.1C129.51 31.3053 129.772 31.5293 129.921 31.772C130.332 32.4253 130.714 32.752 131.069 32.752C131.442 32.752 131.769 32.4347 132.049 31.8L133.225 29.028L126.673 16.68H125.553V16.12H133.085V16.68H131.685L135.437 24.072L138.657 16.68H136.417V16.12H141.009V16.68H139.329L132.609 32.108ZM147.011 13.88V13.32H155.215V13.88H153.843L157.679 22.532L159.471 18.08L157.595 13.88H156.531V13.32H164.203V13.88H162.887L166.639 22.42L169.607 13.88H167.367V13.32H172.183V13.88H170.279L165.043 29H164.371L164.483 28.692L164.343 29L159.835 18.864L155.775 29H155.103L148.355 13.88H147.011ZM178.902 28.44H180.302V29H173.302V28.44H174.702V16.68H173.582V16.12H178.902V28.44ZM179.154 12.424C179.154 13.096 178.911 13.6747 178.426 14.16C177.959 14.6267 177.381 14.86 176.69 14.86C176.018 14.86 175.439 14.6267 174.954 14.16C174.469 13.6747 174.226 13.096 174.226 12.424C174.226 11.7333 174.469 11.1453 174.954 10.66C175.439 10.1747 176.018 9.932 176.69 9.932C177.381 9.932 177.959 10.1747 178.426 10.66C178.911 11.1453 179.154 11.7333 179.154 12.424ZM196.691 28.44H198.091V29H191.091V28.44H192.491V20.6C192.491 19.2747 192.295 18.332 191.903 17.772C191.511 17.212 190.923 16.932 190.139 16.932C189.075 16.932 188.225 17.492 187.591 18.612V28.44H188.991V29H181.991V28.44H183.391V16.68H181.991V16.12H187.591V17.576C187.945 17.0907 188.496 16.68 189.243 16.344C190.008 15.9893 190.829 15.812 191.707 15.812C195.029 15.812 196.691 17.6133 196.691 21.216V28.44ZM203.173 26.396C203.173 26.9187 203.509 27.2173 204.181 27.292H208.997C210.659 27.292 211.816 27.6467 212.469 28.356C213.123 29.0653 213.347 29.9427 213.141 30.988C212.955 32.0333 212.32 32.9947 211.237 33.872C210.155 34.7493 208.661 35.188 206.757 35.188C203.267 35.188 201.027 34.6747 200.037 33.648C199.664 33.2373 199.505 32.752 199.561 32.192C199.617 31.6507 199.823 31.2027 200.177 30.848C200.532 30.512 200.933 30.2787 201.381 30.148C200.784 29.644 200.485 29.0187 200.485 28.272C200.485 27.5253 200.709 26.8627 201.157 26.284C201.624 25.6867 202.156 25.2107 202.753 24.856C200.607 24.072 199.533 22.6627 199.533 20.628C199.533 19.116 200.224 17.9493 201.605 17.128C203.005 16.288 204.583 15.868 206.337 15.868C207.177 15.868 208.017 15.9987 208.857 16.26C208.428 15.6813 208.213 14.9907 208.213 14.188C208.213 13.3853 208.484 12.7227 209.025 12.2C209.585 11.6587 210.276 11.388 211.097 11.388C211.937 11.388 212.563 11.612 212.973 12.06C213.403 12.4893 213.617 12.9747 213.617 13.516C213.617 14.0573 213.449 14.5147 213.113 14.888C212.796 15.2613 212.367 15.448 211.825 15.448C211.303 15.448 210.883 15.2707 210.565 14.916C210.248 14.5613 210.089 14.2067 210.089 13.852C210.089 13.4787 210.155 13.1613 210.285 12.9C210.435 12.62 210.509 12.4613 210.509 12.424C210.453 12.1253 210.267 12.0413 209.949 12.172C209.632 12.3027 209.352 12.5733 209.109 12.984C208.885 13.376 208.773 13.8333 208.773 14.356C208.773 15.3827 209.231 16.204 210.145 16.82C211.751 17.716 212.553 18.9573 212.553 20.544C212.553 22.1307 211.891 23.3347 210.565 24.156C209.24 24.9587 207.672 25.36 205.861 25.36C204.984 25.36 204.209 25.2667 203.537 25.08C203.295 25.4907 203.173 25.9293 203.173 26.396ZM208.353 20.572C208.353 18.9667 208.167 17.8747 207.793 17.296C207.42 16.7173 206.86 16.428 206.113 16.428C205.385 16.428 204.853 16.7267 204.517 17.324C204.181 17.9027 204.013 18.976 204.013 20.544C204.013 22.112 204.191 23.2133 204.545 23.848C204.9 24.4827 205.432 24.8 206.141 24.8C206.869 24.8 207.42 24.492 207.793 23.876C208.167 23.26 208.353 22.1587 208.353 20.572ZM208.829 30.932H204.125C203.229 30.932 202.473 30.7733 201.857 30.456C201.596 31.8 201.932 32.8267 202.865 33.536C203.817 34.264 205.115 34.628 206.757 34.628C208.4 34.628 209.763 34.2173 210.845 33.396C211.349 33.0227 211.629 32.6493 211.685 32.276C211.741 31.9027 211.527 31.5853 211.041 31.324C210.556 31.0627 209.819 30.932 208.829 30.932ZM221.254 28.776C223.195 28.776 224.166 28.244 224.166 27.18C224.166 26.5827 223.83 26.0973 223.158 25.724C222.486 25.332 221.674 25.0147 220.722 24.772C219.77 24.5293 218.827 24.2493 217.894 23.932C216.979 23.6147 216.214 23.1107 215.598 22.42C215.001 21.7293 214.758 20.824 214.87 19.704C214.982 18.584 215.551 17.66 216.578 16.932C217.623 16.204 218.902 15.84 220.414 15.84C221.945 15.84 223.177 16.0827 224.11 16.568C225.043 17.0533 225.566 17.7067 225.678 18.528C225.753 19.032 225.669 19.4987 225.426 19.928C225.202 20.3573 224.819 20.5813 224.278 20.6C223.755 20.6187 223.317 20.4787 222.962 20.18C222.626 19.8813 222.467 19.536 222.486 19.144C222.505 18.752 222.654 18.4067 222.934 18.108C223.214 17.7907 223.354 17.5387 223.354 17.352C223.354 17.0347 223.046 16.8013 222.43 16.652C221.833 16.484 221.133 16.4 220.33 16.4C219.546 16.4 218.902 16.5773 218.398 16.932C217.894 17.2867 217.642 17.7253 217.642 18.248C217.642 18.7707 217.95 19.2187 218.566 19.592C219.201 19.9653 219.966 20.2733 220.862 20.516C221.758 20.74 222.645 21.0013 223.522 21.3C224.418 21.58 225.174 22.0373 225.79 22.672C226.425 23.3067 226.742 24.1093 226.742 25.08C226.742 26.368 226.285 27.404 225.37 28.188C224.455 28.9533 223.074 29.336 221.226 29.336C219.378 29.336 217.875 29.056 216.718 28.496C215.579 27.936 214.954 27.2173 214.842 26.34C214.767 25.836 214.851 25.3693 215.094 24.94C215.337 24.5107 215.719 24.2867 216.242 24.268C216.765 24.2493 217.194 24.3893 217.53 24.688C217.885 24.9867 218.053 25.332 218.034 25.724C218.015 26.116 217.866 26.4707 217.586 26.788C217.306 27.0867 217.166 27.3293 217.166 27.516C217.166 27.8893 217.595 28.1973 218.454 28.44C219.331 28.664 220.265 28.776 221.254 28.776Z" fill="#2C562C"/>
<path d="M54.9961 48V39.4688H60.4629V40.418H56.1445V43.125H59.918V44.0742H56.1445V47.0508H60.5215V48H54.9961ZM61.1866 44.9766V44.7891C61.1866 43.8789 61.4269 43.1289 61.9073 42.5391C62.3878 41.9453 63.0304 41.6484 63.8351 41.6484C64.2765 41.6484 64.6534 41.7266 64.9659 41.8828C65.2823 42.0352 65.5323 42.2402 65.7159 42.498V39H66.8292V48H65.8214L65.7745 47.1855H65.7394C65.5792 47.4434 65.3312 47.6641 64.9952 47.8477C64.6632 48.0273 64.2765 48.1172 63.8351 48.1172C63.0304 48.1172 62.3878 47.8203 61.9073 47.2266C61.4269 46.6328 61.1866 45.8828 61.1866 44.9766ZM62.3234 44.9766C62.3234 45.6016 62.464 46.1289 62.7452 46.5586C63.0304 46.9844 63.4738 47.1973 64.0753 47.1973C64.4816 47.1973 64.8253 47.0898 65.1066 46.875C65.3878 46.6562 65.5909 46.4102 65.7159 46.1367V43.6289C65.5909 43.3516 65.3878 43.1055 65.1066 42.8906C64.8253 42.6719 64.4816 42.5625 64.0753 42.5625C63.4738 42.5625 63.0304 42.7773 62.7452 43.207C62.464 43.6328 62.3234 44.1602 62.3234 44.7891V44.9766ZM68.385 45.7559V41.7656H69.4983V45.7676C69.4983 46.2715 69.6116 46.6328 69.8381 46.8516C70.0686 47.0664 70.3948 47.1738 70.8166 47.1738C71.176 47.1738 71.4924 47.0801 71.7659 46.8926C72.0393 46.7012 72.2522 46.4531 72.4045 46.1484V41.7656H73.5237V48H72.51L72.4631 47.1914H72.4338C72.1995 47.4805 71.9163 47.707 71.5842 47.8711C71.2522 48.0352 70.885 48.1172 70.4827 48.1172C69.842 48.1172 69.3323 47.9355 68.9534 47.5723C68.5745 47.209 68.385 46.6035 68.385 45.7559ZM74.7748 44.9766V44.7891C74.7748 43.8477 75.0345 43.0801 75.5541 42.4863C76.0736 41.8887 76.7904 41.5898 77.7045 41.5898C78.5482 41.5898 79.1888 41.8145 79.6263 42.2637C80.0638 42.709 80.2826 43.207 80.2826 43.7578V43.7871H79.2045V43.7578C79.2045 43.4297 79.0853 43.1387 78.847 42.8848C78.6087 42.6309 78.2279 42.5039 77.7045 42.5039C77.0912 42.5039 76.638 42.7246 76.3451 43.166C76.056 43.6074 75.9115 44.1484 75.9115 44.7891V44.9766C75.9115 45.6172 76.056 46.1582 76.3451 46.5996C76.638 47.041 77.0912 47.2617 77.7045 47.2617C78.2279 47.2617 78.6087 47.1348 78.847 46.8809C79.0853 46.627 79.2045 46.334 79.2045 46.002V45.9727H80.2826V46.002C80.2826 46.5566 80.0638 47.0586 79.6263 47.5078C79.1888 47.9531 78.5482 48.1758 77.7045 48.1758C76.7904 48.1758 76.0736 47.8789 75.5541 47.2852C75.0345 46.6875 74.7748 45.918 74.7748 44.9766ZM81.1059 46.166C81.1059 45.5332 81.3598 45.041 81.8677 44.6895C82.3794 44.334 83.0298 44.1562 83.8188 44.1562H85.2602V43.7109C85.2602 43.3438 85.1606 43.0469 84.9614 42.8203C84.7622 42.5898 84.4204 42.4746 83.936 42.4746C83.4516 42.4746 83.104 42.5723 82.893 42.7676C82.686 42.9629 82.5825 43.1895 82.5825 43.4473V43.4766H81.4751V43.4473C81.4751 42.9512 81.6997 42.5176 82.1489 42.1465C82.5981 41.7754 83.2036 41.5898 83.9653 41.5898C84.7309 41.5898 85.3227 41.7676 85.7407 42.123C86.1626 42.4785 86.3735 43.0078 86.3735 43.7109V46.5938C86.3735 46.8477 86.393 47.0879 86.4321 47.3145C86.4712 47.5371 86.5278 47.7344 86.602 47.9062V48H85.5239C85.4653 47.9023 85.4126 47.7734 85.3657 47.6133C85.3227 47.4531 85.2954 47.2949 85.2837 47.1387C85.1352 47.3965 84.893 47.625 84.5571 47.8242C84.2251 48.0195 83.7954 48.1172 83.268 48.1172C82.6704 48.1172 82.1606 47.9492 81.7388 47.6133C81.3169 47.2773 81.1059 46.7949 81.1059 46.166ZM82.2192 46.1074C82.2192 46.459 82.3247 46.7344 82.5356 46.9336C82.7466 47.1289 83.0727 47.2266 83.5141 47.2266C83.9595 47.2266 84.3618 47.0781 84.7212 46.7812C85.0805 46.4844 85.2602 46.1699 85.2602 45.8379V44.9531H83.936C83.3735 44.9531 82.9458 45.0566 82.6528 45.2637C82.3638 45.4707 82.2192 45.752 82.2192 46.1074ZM87.1031 42.6211V41.7656H90.7125V42.6211H87.1031ZM88.234 46.4531V42.2812V42.1055V40.3125H89.3473V46.4531C89.3473 46.7266 89.402 46.9219 89.5113 47.0391C89.6246 47.1562 89.8023 47.2148 90.0445 47.2148C90.1539 47.2148 90.2613 47.2031 90.3668 47.1797C90.4762 47.1562 90.5875 47.125 90.7008 47.0859V48C90.5953 48.0469 90.4586 48.0879 90.2906 48.123C90.1266 48.1582 89.9449 48.1758 89.7457 48.1758C89.2848 48.1758 88.9176 48.0371 88.6441 47.7598C88.3707 47.4824 88.234 47.0469 88.234 46.4531ZM91.8054 48V41.7656H92.9187V48H91.8054ZM91.6765 39.9141C91.6765 39.7305 91.7351 39.5762 91.8523 39.4512C91.9734 39.3223 92.1433 39.2578 92.362 39.2578C92.5808 39.2578 92.7487 39.3223 92.8659 39.4512C92.987 39.5762 93.0476 39.7305 93.0476 39.9141C93.0476 40.1016 92.987 40.2598 92.8659 40.3887C92.7487 40.5137 92.5808 40.5762 92.362 40.5762C92.1433 40.5762 91.9734 40.5137 91.8523 40.3887C91.7351 40.2598 91.6765 40.1016 91.6765 39.9141ZM94.2166 44.9766V44.7891C94.2166 43.8477 94.4881 43.0801 95.0311 42.4863C95.5741 41.8887 96.2987 41.5898 97.2049 41.5898C98.1112 41.5898 98.8358 41.8887 99.3787 42.4863C99.9217 43.0801 100.193 43.8477 100.193 44.7891V44.9766C100.193 45.918 99.9217 46.6875 99.3787 47.2852C98.8358 47.8789 98.1112 48.1758 97.2049 48.1758C96.2987 48.1758 95.5741 47.8789 95.0311 47.2852C94.4881 46.6875 94.2166 45.918 94.2166 44.9766ZM95.3534 44.7891V44.9766C95.3534 45.6133 95.5077 46.1523 95.8162 46.5938C96.1287 47.0352 96.5916 47.2559 97.2049 47.2559C97.8182 47.2559 98.2791 47.0352 98.5877 46.5938C98.8963 46.1523 99.0506 45.6133 99.0506 44.9766V44.7891C99.0506 44.1484 98.8963 43.6074 98.5877 43.166C98.2791 42.7246 97.8182 42.5039 97.2049 42.5039C96.5916 42.5039 96.1287 42.7246 95.8162 43.166C95.5077 43.6074 95.3534 44.1484 95.3534 44.7891ZM101.438 48V41.7656H102.446L102.493 42.5742H102.528C102.759 42.2812 103.04 42.0547 103.372 41.8945C103.704 41.7305 104.073 41.6484 104.479 41.6484C105.116 41.6484 105.624 41.8301 106.003 42.1934C106.386 42.5527 106.577 43.1582 106.577 44.0098V48H105.458V43.998C105.458 43.4941 105.343 43.1328 105.112 42.9141C104.886 42.6953 104.563 42.5859 104.145 42.5859C103.786 42.5859 103.47 42.6816 103.196 42.873C102.923 43.0645 102.708 43.3105 102.552 43.6113V48H101.438ZM106.686 48.7324L110.307 39.4688H111.356L107.734 48.7324H106.686ZM111.329 43.9922V43.4766C111.329 42.1602 111.673 41.1348 112.361 40.4004C113.048 39.6621 113.909 39.293 114.945 39.293C115.984 39.293 116.79 39.5723 117.364 40.1309C117.939 40.6895 118.239 41.3633 118.267 42.1523V42.2109H117.118V42.1523C117.103 41.6367 116.917 41.1973 116.562 40.834C116.21 40.4668 115.671 40.2832 114.945 40.2832C114.234 40.2832 113.646 40.5527 113.181 41.0918C112.72 41.627 112.489 42.4219 112.489 43.4766V43.9922C112.489 44.9883 112.72 45.7695 113.181 46.3359C113.642 46.9023 114.23 47.1855 114.945 47.1855C115.644 47.1855 116.167 47.002 116.515 46.6348C116.862 46.2637 117.062 45.8242 117.112 45.3164L117.118 45.2578H118.267L118.261 45.3164C118.183 46.1016 117.87 46.7754 117.323 47.3379C116.777 47.8965 115.984 48.1758 114.945 48.1758C113.909 48.1758 113.048 47.8086 112.361 47.0742C111.673 46.3359 111.329 45.3086 111.329 43.9922ZM119.155 44.9766V44.7891C119.155 43.8477 119.426 43.0801 119.969 42.4863C120.512 41.8887 121.237 41.5898 122.143 41.5898C123.049 41.5898 123.774 41.8887 124.317 42.4863C124.86 43.0801 125.131 43.8477 125.131 44.7891V44.9766C125.131 45.918 124.86 46.6875 124.317 47.2852C123.774 47.8789 123.049 48.1758 122.143 48.1758C121.237 48.1758 120.512 47.8789 119.969 47.2852C119.426 46.6875 119.155 45.918 119.155 44.9766ZM120.291 44.7891V44.9766C120.291 45.6133 120.446 46.1523 120.754 46.5938C121.067 47.0352 121.53 47.2559 122.143 47.2559C122.756 47.2559 123.217 47.0352 123.526 46.5938C123.834 46.1523 123.989 45.6133 123.989 44.9766V44.7891C123.989 44.1484 123.834 43.6074 123.526 43.166C123.217 42.7246 122.756 42.5039 122.143 42.5039C121.53 42.5039 121.067 42.7246 120.754 43.166C120.446 43.6074 120.291 44.1484 120.291 44.7891ZM126.376 48V41.7656H127.384L127.431 42.5742H127.466C127.697 42.2812 127.978 42.0547 128.31 41.8945C128.642 41.7305 129.011 41.6484 129.417 41.6484C130.054 41.6484 130.562 41.8301 130.941 42.1934C131.324 42.5527 131.515 43.1582 131.515 44.0098V48H130.396V43.998C130.396 43.4941 130.281 43.1328 130.05 42.9141C129.824 42.6953 129.501 42.5859 129.083 42.5859C128.724 42.5859 128.408 42.6816 128.134 42.873C127.861 43.0645 127.646 43.3105 127.49 43.6113V48H126.376ZM132.678 46.166H133.792V46.1953C133.792 46.5508 133.926 46.8203 134.196 47.0039C134.469 47.1836 134.827 47.2734 135.268 47.2734C135.713 47.2734 136.063 47.1875 136.317 47.0156C136.571 46.8398 136.698 46.6152 136.698 46.3418C136.698 46.0645 136.596 45.8516 136.393 45.7031C136.19 45.5547 135.745 45.4043 135.057 45.252C134.366 45.0996 133.825 44.8789 133.434 44.5898C133.047 44.2969 132.854 43.8926 132.854 43.377C132.854 42.8652 133.069 42.4395 133.499 42.0996C133.928 41.7598 134.506 41.5898 135.233 41.5898C135.96 41.5898 136.542 41.7617 136.979 42.1055C137.42 42.4453 137.641 42.9023 137.641 43.4766V43.5059H136.534V43.459C136.534 43.1582 136.428 42.9219 136.217 42.75C136.006 42.5781 135.678 42.4922 135.233 42.4922C134.788 42.4922 134.463 42.5723 134.26 42.7324C134.057 42.8887 133.956 43.084 133.956 43.3184C133.956 43.5566 134.067 43.7461 134.29 43.8867C134.516 44.0234 134.973 44.168 135.661 44.3203C136.352 44.4727 136.881 44.6992 137.249 45C137.62 45.3008 137.805 45.7266 137.805 46.2773C137.805 46.832 137.592 47.2871 137.167 47.6426C136.745 47.998 136.112 48.1758 135.268 48.1758C134.424 48.1758 133.782 47.9961 133.34 47.6367C132.899 47.2734 132.678 46.793 132.678 46.1953V46.166ZM138.968 45.7559V41.7656H140.082V45.7676C140.082 46.2715 140.195 46.6328 140.422 46.8516C140.652 47.0664 140.978 47.1738 141.4 47.1738C141.759 47.1738 142.076 47.0801 142.349 46.8926C142.623 46.7012 142.836 46.4531 142.988 46.1484V41.7656H144.107V48H143.093L143.047 47.1914H143.017C142.783 47.4805 142.5 47.707 142.168 47.8711C141.836 48.0352 141.468 48.1172 141.066 48.1172C140.425 48.1172 139.916 47.9355 139.537 47.5723C139.158 47.209 138.968 46.6035 138.968 45.7559ZM145.774 48V39H146.887V48H145.774ZM147.682 42.6211V41.7656H151.291V42.6211H147.682ZM148.812 46.4531V42.2812V42.1055V40.3125H149.926V46.4531C149.926 46.7266 149.98 46.9219 150.09 47.0391C150.203 47.1562 150.381 47.2148 150.623 47.2148C150.732 47.2148 150.84 47.2031 150.945 47.1797C151.055 47.1562 151.166 47.125 151.279 47.0859V48C151.174 48.0469 151.037 48.0879 150.869 48.123C150.705 48.1582 150.523 48.1758 150.324 48.1758C149.863 48.1758 149.496 48.0371 149.223 47.7598C148.949 47.4824 148.812 47.0469 148.812 46.4531ZM152.384 48V41.7656H153.497V48H152.384ZM152.255 39.9141C152.255 39.7305 152.314 39.5762 152.431 39.4512C152.552 39.3223 152.722 39.2578 152.94 39.2578C153.159 39.2578 153.327 39.3223 153.444 39.4512C153.565 39.5762 153.626 39.7305 153.626 39.9141C153.626 40.1016 153.565 40.2598 153.444 40.3887C153.327 40.5137 153.159 40.5762 152.94 40.5762C152.722 40.5762 152.552 40.5137 152.431 40.3887C152.314 40.2598 152.255 40.1016 152.255 39.9141ZM155.164 48V41.7656H156.172L156.219 42.5742H156.254C156.485 42.2812 156.766 42.0547 157.098 41.8945C157.43 41.7305 157.799 41.6484 158.205 41.6484C158.842 41.6484 159.35 41.8301 159.729 42.1934C160.111 42.5527 160.303 43.1582 160.303 44.0098V48H159.184V43.998C159.184 43.4941 159.069 43.1328 158.838 42.9141C158.611 42.6953 158.289 42.5859 157.871 42.5859C157.512 42.5859 157.195 42.6816 156.922 42.873C156.649 43.0645 156.434 43.3105 156.277 43.6113V48H155.164ZM161.736 49.6641L162.415 48.8203C162.595 49.0195 162.847 49.1953 163.171 49.3477C163.495 49.5039 163.861 49.582 164.267 49.582C164.81 49.582 165.238 49.4316 165.55 49.1309C165.866 48.8301 166.025 48.4082 166.025 47.8652V47.2617C165.841 47.5195 165.591 47.7266 165.275 47.8828C164.962 48.0391 164.585 48.1172 164.144 48.1172C163.339 48.1172 162.697 47.8203 162.216 47.2266C161.736 46.6328 161.495 45.8828 161.495 44.9766V44.7891C161.495 43.8789 161.736 43.1289 162.216 42.5391C162.697 41.9453 163.339 41.6484 164.144 41.6484C164.585 41.6484 164.972 41.7402 165.304 41.9238C165.64 42.1035 165.888 42.3203 166.048 42.5742H166.083L166.13 41.7656H167.138V47.8652C167.138 48.7285 166.874 49.3926 166.347 49.8574C165.824 50.3223 165.14 50.5547 164.296 50.5547C163.777 50.5547 163.296 50.4707 162.855 50.3027C162.413 50.1348 162.04 49.9219 161.736 49.6641ZM162.632 44.9766C162.632 45.6016 162.773 46.1289 163.054 46.5586C163.339 46.9844 163.783 47.1973 164.384 47.1973C164.79 47.1973 165.134 47.0898 165.415 46.875C165.697 46.6562 165.9 46.4102 166.025 46.1367V43.6289C165.9 43.3516 165.697 43.1055 165.415 42.8906C165.134 42.6719 164.79 42.5625 164.384 42.5625C163.783 42.5625 163.339 42.7773 163.054 43.207C162.773 43.6328 162.632 44.1602 162.632 44.7891V44.9766Z" fill="#D4A72D"/>
<g clip-path="url(#clip0_4071_282)">
<path fill-rule="evenodd" clip-rule="evenodd" d="M15.4351 18.1478C13.0698 19.2824 9.7341 20.3556 8.44531 23.9278C6.64101 23.6058 4.36668 22.4713 2.75949 22.9466C1.95589 24.5717 2.41076 29.9377 2.41076 32.2374C2.153 33.4639 0.0302914 32.59 0.0151292 36.9902C-3.29856e-05 40.9303 0.71259 40.4551 2.39559 41.9729C2.69884 50.0065 0.71259 48.5501 7.29298 50.3438C8.85469 50.7731 10.5074 51.2024 12.0539 51.6163C23.7136 54.7593 19.3469 54.8819 31.0976 51.5857C33.0839 51.0337 39.4975 49.8072 40.483 48.5961L40.6347 41.9882C41.4383 41.2216 41.9083 41.2676 42.4996 40.2864C43.0606 39.3512 43 38.4773 43 37.2355C43 33.4486 42.2722 33.9545 40.6347 32.4827C40.5285 30.0757 41.0289 24.541 40.2556 22.9159C38.4968 22.5479 36.5864 23.5752 34.7821 23.9124C32.8716 21.6587 31.8254 19.2057 27.5648 18.2705L28.4443 17.2279C28.7172 16.9366 29.0204 16.63 29.2782 16.2774C33.8117 9.91485 29.2479 0.899964 21.3635 1.02262C17.0271 1.09927 13.7824 3.99691 12.5543 7.27784C11.8113 9.27093 11.7355 11.6626 12.4178 13.671C12.7211 14.5756 13.2214 15.4648 13.7066 16.2161C14.3434 17.2126 14.7376 17.1973 15.4351 18.1478Z" fill="#2B542B"/>
<path fill-rule="evenodd" clip-rule="evenodd" d="M4.80635 26.5801C4.80635 33.4792 4.3818 32.0228 6.38321 32.6667C7.08068 32.8967 7.41424 33.1113 7.92976 33.5866C10.0828 35.595 10.1586 38.554 8.14203 40.593C6.6713 42.0802 6.51967 41.4056 4.85183 42.1875L4.82151 47.1396L20.287 51.2944V29.7384L4.82151 25.5376L4.80635 26.5801Z" fill="white"/>
<path fill-rule="evenodd" clip-rule="evenodd" d="M22.7129 29.7077V51.2484L38.1784 47.1242C38.2087 41.007 38.6332 42.4021 36.556 41.7429C33.3416 40.731 32.4167 36.2542 34.7517 33.7859C35.8282 32.636 36.647 32.866 38.148 32.2374L38.1935 25.5682L22.6978 29.7077H22.7129Z" fill="white"/>
<path fill-rule="evenodd" clip-rule="evenodd" d="M19.9838 3.62896C10.7955 5.76003 13.7521 19.6656 23.092 17.7185C32.0377 15.8481 29.2782 1.46723 19.9838 3.62896Z" fill="white"/>
<path fill-rule="evenodd" clip-rule="evenodd" d="M10.8561 24.541C11.4778 24.863 20.6964 27.3773 21.3787 27.4233C22.8949 27.5153 29.915 25.0316 32.1893 24.679C30.5973 20.3862 25.4421 20.3096 21.5606 20.3402C19.256 20.3556 16.8755 20.1256 14.8589 20.9381C13.2821 21.5667 11.2958 23.1765 10.8409 24.541H10.8561Z" fill="white"/>
<path fill-rule="evenodd" clip-rule="evenodd" d="M37.7539 34.8898C34.9489 35.549 35.0247 39.7651 39.0123 39.6118C40.8773 39.5352 40.665 38.324 40.5892 36.4996C40.5134 34.7211 39.4217 34.4911 37.7539 34.8898Z" fill="white"/>
<path fill-rule="evenodd" clip-rule="evenodd" d="M2.44114 36.5302C2.44114 37.8487 2.35017 38.186 2.68374 39.3512C7.99051 41.007 8.7941 34.8438 4.13931 34.8284C2.66857 34.8131 2.44114 35.0431 2.44114 36.5302Z" fill="white"/>
<path fill-rule="evenodd" clip-rule="evenodd" d="M19.4682 39.5812C19.4379 37.8027 19.544 37.7567 18.0429 36.4229L10.6741 30.3976C10.4618 30.183 9.47631 29.5391 9.33985 29.3551C9.20339 30.0297 9.93117 31.0262 10.2496 31.6855C11.8264 34.9664 12.7513 34.8591 15.9202 37.1128C16.5267 37.5421 17.1635 37.956 17.6942 38.3393L19.4682 39.5658V39.5812Z" fill="#D4A72D"/>
<path fill-rule="evenodd" clip-rule="evenodd" d="M12.9787 38.5846C14.1311 39.1826 15.1166 39.5812 16.1931 40.1484L18.6039 41.2983C19.0133 41.5129 19.1346 41.4823 19.453 41.6356C19.5136 41.3596 19.4682 40.5317 19.362 40.2864C19.0891 39.6425 16.2538 37.8794 15.5715 37.4041C14.6314 36.7449 13.8127 36.2083 12.8726 35.5337C12.4026 35.1964 12.0084 34.9204 11.5232 34.5985C11.1289 34.3378 10.4921 33.9085 10.1434 33.6172C9.99178 34.3532 12.2055 38.1707 12.9636 38.554L12.9787 38.5846Z" fill="#D4A72D"/>
<path fill-rule="evenodd" clip-rule="evenodd" d="M11.0077 38.232C11.1138 38.8759 12.9333 41.1143 13.8733 41.6049C14.313 41.8349 14.8589 41.9575 15.2531 42.0495L19.4379 43.1534C19.4379 42.9387 19.4379 42.3715 19.3317 42.1875C19.1195 41.8502 18.7101 41.8349 18.2704 41.6049C17.4061 41.1603 16.739 40.8843 15.8596 40.4551L11.0229 38.232H11.0077Z" fill="#D4A72D"/>
<path fill-rule="evenodd" clip-rule="evenodd" d="M18.3159 43.1381L17.2242 45.1158C17.0423 45.4378 16.8906 45.8364 16.6935 46.1584C16.4813 46.5263 16.3296 46.695 16.087 47.1702C17.0119 47.4002 19.1043 45.8057 19.3772 45.2845C19.5743 44.8858 19.5743 43.598 19.2105 43.3987C18.8617 43.2147 18.6343 43.1994 18.3159 43.1227V43.1381Z" fill="#D4A72D"/>
<path fill-rule="evenodd" clip-rule="evenodd" d="M14.2524 45.2845C15.056 45.4838 15.6625 45.2691 16.2993 44.9012C16.7997 44.6252 17.6033 43.828 17.952 43.1381C16.6329 42.4635 16.3752 42.7241 15.8748 43.368C15.3744 43.9966 14.7983 44.6405 14.2676 45.2845H14.2524Z" fill="#D4A72D"/>
<path fill-rule="evenodd" clip-rule="evenodd" d="M13.1152 43.6593C13.4185 43.736 13.6459 43.7666 13.9492 43.736C14.6921 43.69 15.6322 43.2914 15.9961 42.5861C15.3896 42.4328 14.874 42.3408 14.3889 42.5861C14.1159 42.7241 13.3123 43.3527 13.1304 43.644L13.1152 43.6593Z" fill="#D4A72D"/>
<path fill-rule="evenodd" clip-rule="evenodd" d="M23.6985 39.5812C23.7288 37.8027 23.6227 37.7567 25.1237 36.4229L32.4926 30.3976C32.7048 30.183 33.6904 29.5391 33.8268 29.3551C33.9633 30.0297 33.2355 31.0262 32.9171 31.6855C31.3402 34.9664 30.4153 34.8591 27.2464 37.1128C26.64 37.5421 26.0031 37.956 25.4725 38.3393L23.6985 39.5658V39.5812Z" fill="#D4A72D"/>
<path fill-rule="evenodd" clip-rule="evenodd" d="M30.1879 38.5846C29.0356 39.1826 28.0652 39.5812 26.9736 40.1484L24.5628 41.2983C24.1534 41.5129 24.0321 41.4823 23.7137 41.6356C23.653 41.3596 23.6985 40.5317 23.8047 40.2864C24.0776 39.6425 26.9129 37.8794 27.5952 37.4041C28.5353 36.7449 29.354 36.2083 30.2941 35.5337C30.7641 35.1964 31.1583 34.9204 31.6435 34.5985C32.0377 34.3378 32.6745 33.9085 33.0233 33.6172C33.1749 34.3532 30.9612 38.1707 30.2031 38.554L30.1879 38.5846Z" fill="#D4A72D"/>
<path fill-rule="evenodd" clip-rule="evenodd" d="M32.1438 38.232C32.0377 38.8759 30.2182 41.1143 29.2781 41.6049C28.8384 41.8349 28.2926 41.9575 27.8984 42.0495L23.7136 43.1534C23.7136 42.9387 23.7136 42.3715 23.8198 42.1875C24.032 41.8502 24.4414 41.8349 24.8811 41.6049C25.7454 41.1603 26.4125 40.8843 27.2919 40.4551L32.1286 38.232H32.1438Z" fill="#D4A72D"/>
<path fill-rule="evenodd" clip-rule="evenodd" d="M24.8356 43.1381L25.9273 45.1158C26.1093 45.4378 26.2609 45.8364 26.458 46.1584C26.6703 46.5263 26.8219 46.695 27.0645 47.1702C26.1396 47.4002 24.0472 45.8057 23.7743 45.2845C23.5772 44.8858 23.5772 43.598 23.9411 43.3987C24.2898 43.2147 24.5172 43.1994 24.8356 43.1227V43.1381Z" fill="#D4A72D"/>
<path fill-rule="evenodd" clip-rule="evenodd" d="M28.8992 45.2845C28.0956 45.4838 27.4891 45.2691 26.8523 44.9012C26.3519 44.6252 25.5483 43.828 25.1996 43.1381C26.5187 42.4635 26.7765 42.7241 27.2768 43.368C27.7772 43.9966 28.3533 44.6405 28.884 45.2845H28.8992Z" fill="#D4A72D"/>
<path fill-rule="evenodd" clip-rule="evenodd" d="M30.0362 43.6593C29.733 43.736 29.5055 43.7666 29.2023 43.736C28.4593 43.69 27.5193 43.2914 27.1554 42.5861C27.7619 42.4328 28.2774 42.3408 28.7626 42.5861C29.0355 42.7241 29.8391 43.3527 30.0211 43.644L30.0362 43.6593Z" fill="#D4A72D"/>
</g>
<defs>
<clipPath id="clip0_4071_282">
<rect width="43" height="53" fill="white" transform="translate(0 1)"/>
</clipPath>
</defs>
</svg>
