<svg width="34" height="31" viewBox="0 0 34 31" fill="none" xmlns="http://www.w3.org/2000/svg">
<path d="M32.4163 15.5H11.8247M4.55634 15.5H1.58301M4.55634 15.5C4.55634 14.5364 4.93914 13.6122 5.62052 12.9309C6.3019 12.2495 7.22606 11.8667 8.18968 11.8667C9.1533 11.8667 10.0774 12.2495 10.7588 12.9309C11.4402 13.6122 11.823 14.5364 11.823 15.5C11.823 16.4636 11.4402 17.3878 10.7588 18.0692C10.0774 18.7505 9.1533 19.1333 8.18968 19.1333C7.22606 19.1333 6.3019 18.7505 5.62052 18.0692C4.93914 17.3878 4.55634 16.4636 4.55634 15.5ZM32.4163 26.5117H22.8363M22.8363 26.5117C22.8363 27.4755 22.4526 28.4007 21.7711 29.0823C21.0895 29.7638 20.1652 30.1467 19.2013 30.1467C18.2377 30.1467 17.3136 29.7622 16.6322 29.0808C15.9508 28.3995 15.568 27.4753 15.568 26.5117M22.8363 26.5117C22.8363 25.5478 22.4526 24.6243 21.7711 23.9428C21.0895 23.2612 20.1652 22.8783 19.2013 22.8783C18.2377 22.8783 17.3136 23.2611 16.6322 23.9425C15.9508 24.6239 15.568 25.5481 15.568 26.5117M15.568 26.5117H1.58301M32.4163 4.48834H27.2413M19.973 4.48834H1.58301M19.973 4.48834C19.973 3.52472 20.3558 2.60057 21.0372 1.91919C21.7186 1.23781 22.6427 0.855011 23.6063 0.855011C24.0835 0.855011 24.5559 0.94899 24.9968 1.13158C25.4376 1.31417 25.8381 1.5818 26.1755 1.91919C26.5129 2.25658 26.7805 2.65711 26.9631 3.09793C27.1457 3.53874 27.2397 4.01121 27.2397 4.48834C27.2397 4.96548 27.1457 5.43794 26.9631 5.87876C26.7805 6.31958 26.5129 6.72011 26.1755 7.0575C25.8381 7.39488 25.4376 7.66251 24.9968 7.84511C24.5559 8.0277 24.0835 8.12168 23.6063 8.12168C22.6427 8.12168 21.7186 7.73888 21.0372 7.0575C20.3558 6.37612 19.973 5.45196 19.973 4.48834Z" stroke="#404040" stroke-width="1.5" stroke-miterlimit="10" stroke-linecap="round"/>
</svg>
